<?xml version="1.0" standalone="no"?>
<!DOCTYPE svg PUBLIC "-//W3C//DTD SVG 20010904//EN"
 "http://www.w3.org/TR/2001/REC-SVG-20010904/DTD/svg10.dtd">
<svg version="1.0" xmlns="http://www.w3.org/2000/svg"
 width="192.000000pt" height="192.000000pt" viewBox="0 0 192.000000 192.000000"
 preserveAspectRatio="xMidYMid meet">
<metadata>
Created by potrace 1.11, written by Peter Selinger 2001-2013
</metadata>
<g transform="translate(0.000000,192.000000) scale(0.100000,-0.100000)"
fill="#000000" stroke="none">
<path d="M268 1463 c7 -3 16 -2 19 1 4 3 -2 6 -13 5 -11 0 -14 -3 -6 -6z"/>
<path d="M300 1457 c0 -17 54 -25 120 -19 72 7 46 27 -40 30 -65 3 -80 1 -80
-11z"/>
<path d="M910 1457 c0 -16 53 -26 101 -19 48 7 17 28 -46 31 -42 2 -55 -1 -55
-12z"/>
<path d="M1500 1454 c0 -7 18 -14 43 -16 53 -6 77 0 77 19 0 11 -14 14 -60 12
-40 -2 -60 -6 -60 -15z"/>
<path d="M1646 1455 c-3 -8 -1 -15 4 -15 6 0 10 7 10 15 0 8 -2 15 -4 15 -2 0
-6 -7 -10 -15z"/>
<path d="M338 1402 c-25 -2 -38 -8 -38 -18 0 -11 17 -14 80 -14 70 0 80 2 80
18 0 18 -32 21 -122 14z"/>
<path d="M938 1403 c-25 -3 -38 -9 -38 -19 0 -11 17 -14 80 -14 64 0 80 3 80
15 0 10 -10 15 -29 15 -16 0 -35 1 -43 3 -7 2 -30 2 -50 0z"/>
<path d="M1538 1402 c-25 -2 -38 -8 -38 -18 0 -11 15 -14 66 -14 49 0 63 3 58
13 -6 10 -4 10 7 0 18 -18 29 -16 29 5 0 18 -32 21 -122 14z"/>
<path d="M372 1310 c-24 -11 -50 -32 -59 -49 -16 -27 -20 -29 -68 -24 -66 6
-109 -20 -126 -76 -10 -34 -9 -47 5 -84 21 -57 129 -173 199 -215 72 -43 181
-82 234 -82 36 0 46 -5 65 -31 30 -40 67 -59 116 -59 53 0 81 25 97 85 8 28
14 43 15 35 1 -8 2 -32 4 -53 2 -30 13 -49 51 -87 26 -26 60 -50 75 -53 40 -9
98 10 116 38 15 23 17 23 49 8 48 -23 117 -11 149 27 13 16 26 34 28 39 2 7
21 5 52 -4 86 -26 200 -2 265 54 12 11 38 22 58 26 61 11 103 72 89 129 -3 14
-21 40 -39 60 -19 19 -55 77 -81 129 -61 121 -118 177 -181 177 -37 0 -75 -41
-75 -82 l0 -33 -87 0 c-115 0 -201 -10 -236 -26 -24 -11 -30 -10 -50 9 -36 34
-91 30 -118 -8 l-22 -30 -53 50 c-56 53 -68 57 -109 38 -23 -10 -29 -8 -58 19
-42 40 -82 60 -159 78 -81 19 -94 19 -146 -5z"/>
<path d="M1420 640 c0 -6 7 -10 15 -10 8 0 15 2 15 4 0 2 -7 6 -15 10 -8 3
-15 1 -15 -4z"/>
<path d="M1474 633 c2 -10 6 -17 10 -16 15 3 16 11 2 22 -12 10 -14 9 -12 -6z"/>
<path d="M1416 603 c-6 -14 -5 -15 5 -6 7 7 10 15 7 18 -3 3 -9 -2 -12 -12z"/>
<path d="M1497 596 c-3 -6 6 -11 18 -11 12 0 21 5 18 11 -2 6 -10 11 -18 11
-8 0 -16 -5 -18 -11z"/>
<path d="M1524 552 c3 -5 0 -12 -6 -15 -9 -3 -10 -8 -2 -16 7 -8 15 -7 30 4
18 15 18 15 0 8 -13 -4 -17 -3 -12 5 3 6 1 14 -5 18 -7 4 -9 3 -5 -4z"/>
<path d="M0 526 c0 -18 24 -23 78 -18 27 3 42 9 42 18 0 10 -15 14 -60 14 -44
0 -60 -4 -60 -14z"/>
<path d="M580 530 c-20 -12 -12 -18 30 -20 73 -6 110 0 110 15 0 12 -14 15
-62 15 -35 0 -70 -4 -78 -10z"/>
<path d="M1170 524 c0 -6 10 -12 23 -12 12 -1 29 -2 37 -3 47 -6 90 2 90 17 0
13 -12 15 -75 13 -49 -2 -75 -7 -75 -15z"/>
<path d="M1765 530 c-7 -12 4 -18 40 -20 71 -5 115 0 115 13 0 10 -20 14 -75
15 -41 1 -77 -3 -80 -8z"/>
<path d="M1576 517 c3 -10 9 -15 12 -12 3 3 0 11 -7 18 -10 9 -11 8 -5 -6z"/>
<path d="M1534 499 c-2 -5 -11 -6 -19 -2 -17 6 -19 -5 -6 -26 7 -11 11 -10 19
5 8 14 13 15 24 7 7 -6 21 -7 33 -2 17 6 17 8 3 8 -10 1 -18 5 -18 9 0 11 -29
11 -36 1z"/>
<path d="M18 473 c-10 -2 -18 -11 -18 -19 0 -11 15 -14 60 -14 47 0 60 3 60
15 0 10 -10 15 -29 15 -16 0 -35 2 -43 4 -7 2 -21 2 -30 -1z"/>
<path d="M598 472 c-25 -2 -38 -8 -38 -18 0 -11 20 -14 101 -14 73 0 100 3 97
12 -2 6 -10 14 -18 16 -9 3 -10 0 -4 -9 6 -11 5 -12 -7 -3 -16 13 -78 21 -131
16z"/>
<path d="M1198 472 c-25 -2 -38 -8 -38 -18 0 -11 17 -14 80 -14 57 0 80 4 80
13 0 9 3 8 9 -2 10 -15 31 -7 31 12 0 8 -3 7 -9 -2 -5 -7 -10 -9 -12 -4 -4 11
-84 20 -141 15z"/>
<path d="M1798 472 c-25 -2 -38 -8 -38 -18 0 -11 17 -14 80 -14 62 0 80 3 80
14 0 15 -56 23 -122 18z"/>
<path d="M1410 450 c0 -5 5 -10 11 -10 5 0 7 5 4 10 -3 6 -8 10 -11 10 -2 0
-4 -4 -4 -10z"/>
<path d="M1427 409 c3 -10 9 -16 14 -13 13 8 11 21 -5 27 -10 4 -12 0 -9 -14z"/>
<path d="M1607 415 c-4 -8 -1 -17 5 -21 7 -4 8 -3 4 4 -4 7 -2 12 3 12 6 0 11
5 11 10 0 15 -17 12 -23 -5z"/>
<path d="M1505 409 c-11 -16 -1 -19 13 -3 7 8 8 14 3 14 -5 0 -13 -5 -16 -11z"/>
</g>
</svg>
